<?xml version="1.0" encoding="UTF-8"?>
<!-- Created with Inkscape (http://www.inkscape.org/) -->
<svg version="1.1" viewBox="0 0 851 121.98" xmlns="http://www.w3.org/2000/svg" xmlns:cc="http://creativecommons.org/ns#" xmlns:dc="http://purl.org/dc/elements/1.1/" xmlns:rdf="http://www.w3.org/1999/02/22-rdf-syntax-ns#">
 <metadata>
  <rdf:RDF>
   <cc:Work rdf:about="">
    <dc:format>image/svg+xml</dc:format>
    <dc:type rdf:resource="http://purl.org/dc/dcmitype/StillImage"/>
    <dc:title/>
   </cc:Work>
  </rdf:RDF>
 </metadata>
 <path d="m123.94 119.08c-2.5802-2.5802-2.927-3.4136-1.9234-4.6228 1.6797-2.0239 3.265-1.8486 4.7473 0.52488 1.845 2.9544 7.9997 2.7861 9.1461-0.25 1.1987-3.1744-0.0862-5.0098-5.4323-7.7594-8.7163-4.483-10.718-9.9084-5.5587-15.068 2.1608-2.1608 3.873-2.9231 6.5657-2.9231 4.8677 0 9.4355 2.493 9.4959 5.1826 0.0343 1.5276-3.8615 1.7627-6.5029 0.39233-3.2896-1.7067-6.4818-0.5714-6.4818 2.3053 0 2.2286 2.2174 4.242 7.7166 7.0066 4.7382 2.382 6.2834 4.5933 6.2834 8.9917 0 4.9125-3.7185 8.292-9.763 8.8728-4.7452 0.45596-5.39 0.24967-8.293-2.6533zm100.03 0.65206c-11.395-5.7566-12.305-20.262-1.7614-28.072 3.8274-2.835 12.445-3.4105 17.21-1.1493 12.267 5.8212 12.661 22.823 0.67424 29.147-5.5469 2.9262-10.434 2.949-16.123 0.075zm15.63-6.15c2.7481-2.7481 3.4-4.177 3.4-7.453 0-7.907-4.1122-12.423-11.223-12.325-5.0235 0.0693-8.5503 2.3916-10.417 6.8589-3.4048 8.1487 2.0299 16.201 10.99 16.283 3.071 0.0283 4.5379-0.65248 7.25-3.3646zm267.9 6.9826c-3.7267-1.6634-8.0311-6.1782-9.4364-9.8977-3.8613-10.22 4.7694-21.685 16.324-21.685 10.896 0 19.295 10.038 16.642 19.889-2.7784 10.318-14.055 15.922-23.53 11.693zm13.086-5.2311c5.3404-3.4992 6.8491-10.485 3.4635-16.038-6.2516-10.253-21.05-5.7797-21.05 6.3629 0 3.8108 0.53556 5.0588 3.4 7.9233 2.7704 2.7704 4.1658 3.4 7.5352 3.4 2.2744 0 5.2674-0.74182 6.6511-1.6485zm-352.43 3.5613c-0.5066-1.3271-3.2233-8.4434-6.0372-15.814-2.8138-7.3707-5.1161-13.588-5.1161-13.816s1.228-0.2727 2.7288-0.0987c2.4407 0.28302 3.1007 1.2843 6.2522 9.4852 3.5148 9.1464 5.0239 11.93 5.0137 9.2478-6e-3 -1.5016 5.8821-16.915 6.9277-18.136 0.33878-0.39553 2.4488 3.8057 4.689 9.3361l4.073 10.055 3.7833-10.086c3.3337-8.8875 4.0655-10.086 6.1578-10.086 1.306 0 2.3745 0.44759 2.3745 0.99464 0 1.8003-11.308 31.005-12.005 31.005-0.37477 0-2.4113-4.2806-4.5257-9.5123-2.1144-5.2318-4.1763-9.1693-4.582-8.75-0.40572 0.41929-2.1549 4.3623-3.887 8.7623-3.7597 9.5503-4.6162 10.636-5.8468 7.4128zm99.847-14.047v-16.134l7.0258 0.50269c4.7034 0.33652 7.6596 1.0763 8.9433 2.2381 4.2727 3.8668 3.3316 12.159-1.6369 14.422l-2.5326 1.1539 2.6002 3.4758c1.4301 1.9117 3.7786 5.0508 5.2189 6.9758l2.6187 3.5h-3.1241c-2.7046 0-3.7612-0.8869-7.8687-6.605l-4.7446-6.605-0.29569 6.605c-0.2947 6.5828-0.30562 6.605-3.25 6.605h-2.9543zm12.845-5.8096c0.37576-2.6621-2.0087-5.056-5.0361-5.056-1.4484 0-1.8089 0.80978-1.8089 4.0634 0 3.9819 0.0651 4.0571 3.25 3.75 2.5766-0.24844 3.3215-0.81972 3.595-2.7573zm26.38 6.194 0.27539-15.75 2.996-0.34016c1.6478-0.18708 5.9097-0.0281 9.4709 0.35325 5.6881 0.60915 6.9229 1.1414 10.161 4.3797 4.8798 4.8798 6.0215 11.227 3.2309 17.96-2.9854 7.2035-6.7108 9.1472-17.532 9.1472h-8.8775zm15.657 10.642c5.6286-1.9621 7.9256-10.497 4.5709-16.984-1.7806-3.4433-4.9184-4.9074-10.517-4.9074h-3.9349v23h3.3508c1.8429 0 4.7816-0.49879 6.5304-1.1084zm40.286 4.1757c1.052-2.9437 14.42-29.961 14.848-30.009 0.28323-0.032 3.9939 6.9169 8.2459 15.442l7.7309 15.5h-2.9756c-2.4647 0-3.3259-0.68673-5.0162-4-2.0282-3.9756-2.0761-4-7.8684-4h-5.8278l-1.8038 4c-1.5092 3.3468-2.2825 4-4.7352 4-1.6123 0-2.7815-0.41973-2.5981-0.93273zm18.833-11.458c0-0.21493-0.81947-2.2211-1.821-4.4582l-1.821-4.0674-4.3319 8.9164h3.987c2.1928 0 3.987-0.17586 3.987-0.3908zm28.225-3.3592 0.27539-15.75 6.9121 0.0878c6.2264 0.0791 7.1441 0.35748 9.25 2.8058 3.9339 4.5734 2.7347 11.745-2.2829 13.652l-2.4992 0.95018 4.3834 5.752c6.316 8.2878 6.3034 8.252 2.8753 8.252-2.5154 0-3.7313-1.0257-7.809-6.5873l-4.8298-6.5873-0.29569 6.5873c-0.2952 6.5764-0.30061 6.5873-3.2754 6.5873h-2.9797zm12.62-6.194c0.37576-2.6621-2.0087-5.056-5.0361-5.056-1.4484 0-1.8089 0.80978-1.8089 4.0634 0 3.9819 0.0651 4.0571 3.25 3.75 2.5766-0.24844 3.3215-0.81972 3.595-2.7573zm31.155 8.444v-13.5h-4.5696c-4.1668 0-4.5414-0.19831-4.25-2.25 0.30695-2.1613 0.76298-2.2611 11.57-2.5327l11.25-0.28275v2.5327c0 2.2882-0.38621 2.5328-4 2.5328h-4v27h-6zm97-2.6235v-16.124l22.929 21.384 0.28574-10.319c0.28422-10.264 0.29905-10.319 2.7857-10.319h2.5l0.27539 15.75c0.15147 8.6625-0.11021 15.75-0.58151 15.75s-5.7702-4.4736-11.775-9.9413l-10.918-9.9413-0.28498 9.9413c-0.28159 9.8227-0.3144 9.9413-2.75 9.9413h-2.465zm49 0.1235v-16h5v28h6c5.3333 0 6 0.22222 6 2 0 1.8431-0.66667 2-8.5 2h-8.5zm35 0v-16h5v32h-5zm25.798-0.0556 0.29828-16.058 22.831 21.294 0.28597-10.34c0.2845-10.286 0.29894-10.34 2.786-10.34h2.5l0.27539 15.75c0.17886 10.229-0.0825 15.75-0.74561 15.75-0.56156 0-5.8605-4.4801-11.775-9.9558l-10.754-9.9558-0.28498 9.9558-0.28499 9.9558-5.43 2e-3 0.29828-16.058zm49.426 0.3056 0.27539-15.75 3.5-0.33299c1.925-0.18315 5.8625-0.0383 8.75 0.32196 4.2916 0.53538 5.25 1.0069 5.25 2.583 0 1.6898-0.74131 1.928-6 1.928h-6v8h6c5.2824 0 6 0.23326 6 1.9503 0 1.6417-0.94962 2.0578-6 2.6292l-6 0.67882v9.7417h6c5.3333 0 6 0.22222 6 2 0 1.8523-0.66667 2-9.0254 2h-9.0254zm-542.22-66.395v-37.145l6.6423 0.62027c6.5494 0.61159 9.0516 1.5163 6.6077 2.3892-0.90429 0.32296-1.2458 3.673-1.2347 12.113 9e-3 6.5326 0.37891 11.093 0.84153 10.364 0.89125-1.4051 7.6466 0.94869 23.438 8.1666l7.7946 3.5628-1.6929 3.2866c-4.3006 8.3491-3.1461 8.1769-15.178 2.2651-5.8952-2.8966-11.731-5.5696-12.969-5.9399l-2.25-0.67335v38.135h-12zm62.992 34.934c-1.3708-1.1116-3.3924-2.665-4.4924-3.4519-1.995-1.4272-1.9951-1.4335-0.0111-2.5677 1.0939-0.62533 4.1423-3.1512 6.7742-5.613 6.4061-5.9922 11.233-16.037 13.454-27.999l1.735-9.3423 6.5238 0.6909c6.9608 0.73718 8.1539 1.1771 6.3 2.3229-0.64121 0.39629-1.9065 4.3061-2.8117 8.6886-2.9706 14.382-8.7687 25.821-16.875 33.293-6.4046 5.9035-7.6477 6.3703-10.597 3.9787zm159.01-34.79v-37l3.25 0.0576c1.7875 0.0317 5.0061 0.36969 7.1524 0.75109 3.4755 0.61761 3.7216 0.84348 2.25 2.0648-1.3435 1.115-1.6524 3.3238-1.6524 11.816 0 9.795 0.11785 10.408 1.894 9.8438 1.1502-0.36505 6.3537 1.3258 13.25 4.3055 15.855 6.8504 16.856 7.3544 16.856 8.4835 0 1.1817-4.872 9.6773-5.5496 9.6773-0.25592 0-5.6138-2.475-11.906-5.5-6.2926-3.025-12.139-5.5-12.993-5.5-1.3475 0-1.5515 2.4977-1.5515 19v19h-11zm116.56 35.75c-0.2093-0.6875-0.87018-2.7796-1.4686-4.6492-0.59844-1.8696-1.0881-3.5571-1.0881-3.75 0-0.19293 3.6-0.35078 8-0.35078h8v-28.118l-8.75 8.8677c-4.8125 4.8772-11.828 11.047-15.59 13.711l-6.8395 4.8432-3.9971-4.3728c-2.1984-2.405-3.4984-4.539-2.8889-4.7422 3.8201-1.2734 14.872-9.9154 22.565-17.646l9-9.0428-28.5-0.55491v-9.9451h35v-17h5.8333c6.3179 0 7.9383 0.68057 5.7168 2.4011-1.0857 0.84087-1.2847 2.6837-0.84754 7.8489l0.57127 6.75h22.836l-0.60958 9.5-22.5 0.5655v18.818c0 21.542-0.65294 24.656-5.6032 26.724-4.2806 1.7885-18.307 1.8946-18.84 0.14243zm142.78-3.1667-3.1644-4.272 5.6644-1.7771c14.105-4.425 26.318-13.804 30.959-23.773 1.2132-2.6065 2.2058-4.969 2.2058-5.25 0-0.281-11.475-0.5109-25.5-0.5109h-25.5v-9.94l28.75-0.27997c26.649-0.25952 29.058-0.13861 32.969 1.6544 2.693 1.2346 3.9158 2.3199 3.3803 3-0.4615 0.58608-1.4099 2.8656-2.1075 5.0656-5.4374 17.146-17.669 30.52-33.807 36.962-9.9102 3.9561-10.286 3.9322-13.85-0.87884zm89.664-15.071v-19.488l-5.25 3.3408c-7.2208 4.5948-20.199 11.634-21.449 11.634-1.0856 0-6.8828-7.8104-6.1992-8.352 0.2192-0.17367 4.2236-2.2493 8.8986-4.6125 15.688-7.9302 32.226-19.57 45.053-31.709l5.5532-5.2553 4.9468 3.5171c2.7208 1.9344 4.7488 3.8309 4.5069 4.2145-0.24198 0.38357-2.1154 2.0474-4.1632 3.6974-15.139 12.198-19.764 16.395-18.645 16.917 0.99622 0.46515 0.99575 0.70013-2e-3 1.1659-0.94423 0.44065-1.25 5.9444-1.25 22.5l-3.1e-4 21.917h-12zm-173.25 13.057-3.7531-5.4068 5.2531-1.7213c13.719-4.4954 27.755-13.412 37.488-23.817 5.8511-6.2549 14.266-18.897 14.266-21.433 0-1.6699 0.22066-1.5901 5.8417 2.1118l5.0163 3.3036-2.7068 4.9464c-10.211 18.659-27.879 34.28-48.142 42.565-4.4052 1.8011-8.0094 3.6362-8.0094 4.0781 0 1.9499-1.7697 0.39106-5.2531-4.6272zm221.85 0.42814c-1.9766-2.7513-3.5938-5.166-3.5938-5.366 0-0.20004 2.8125-1.3817 6.25-2.626 20.821-7.5364 37.374-20.941 46.94-38.011l4.2725-7.6243 4.7686 2.9643c2.6227 1.6304 4.7686 3.14 4.7686 3.3547s-0.9548 2.2849-2.1218 4.6005c-8.8325 17.526-27.702 34.149-49.128 43.279-3.7125 1.582-6.75 3.2262-6.75 3.6538 0 2.0009-2.1284 0.33761-5.4062-4.2248zm-774.99 0.11202-3.7988-3.8903 5.8634-3.1252c17.491-9.3228 29.446-24.44 36.45-46.094 3.0349-9.3829 2.5711-9.1176 11.129-6.3664 2.6125 0.8399 4.75 1.9409 4.75 2.4467s-0.39165 0.91963-0.87033 0.91963-2.093 3.4875-3.5873 7.75c-5.7468 16.392-16.183 31.964-27.378 40.852-4.8841 3.8773-16.964 11.398-18.308 11.398-0.24803 0-2.1604-1.7506-4.2497-3.8903zm439.79-23.51c-5.2373-5.2373-4.406-12.797 1.8251-16.596 3.9566-2.4124 5.9393-2.4946 10.297-0.42693 10.434 4.9512 6.3682 20.406-5.3716 20.419-2.4794 3e-3 -4.2336-0.87983-6.75-3.3963zm-376.72-7.3844c-0.32408-3.14-0.24428-6.0541 0.17733-6.4757s16.263-0.64806 35.203-0.50322l34.437 0.26335 0.60452 10.5h-33.118c-19.303 0-33.868 0.40144-34.916 0.96239-1.6082 0.86067-1.8605 0.35898-2.3875-4.7468zm223.95 5.0825c-0.34731-0.34732-0.63148-3.2565-0.63148-6.4648v-5.8333h70v11h-32.566c-19.006 0-33.316 0.40172-34.369 0.96482-0.99153 0.53065-2.0869 0.68065-2.4343 0.33333zm-29.92-8.5687-4.7889-3.0654 3.4415-3.582c1.8928-1.9701 4.6445-5.382 6.1149-7.582l2.6735-4-53.652-1-0.60452-10.5h31.592c29.596 0 31.839 0.1261 35.504 1.9957l3.9119 1.9957-4.0942 7.2543c-4.7978 8.501-8.55 14.034-12.478 18.402l-2.831 3.1474zm-259.48-3.9795c-1.6259-3.4375-4.5933-8.6577-6.5943-11.6-2.0009-2.9428-3.6381-5.5092-3.6381-5.7032 0-0.194 2.1375-1.3023 4.75-2.4629l4.75-2.1102 2.8208 3.3134c2.8479 3.3452 9.8372 14.831 10.991 18.063 0.48319 1.3531-0.49297 2.3156-4.3104 4.25-2.7143 1.3754-5.1326 2.5008-5.3741 2.5008s-1.7693-2.8125-3.3952-6.25zm563.68-8.6625c-5.276-2.6246-10.576-5.0292-11.779-5.3437l-2.1862-0.5717 2.2281-4.5861c1.2254-2.5223 2.8032-4.5861 3.506-4.5861 1.7877 0 13.166 4.3552 17.89 6.8476 6.8809 3.6303 6.7474 3.3381 3.8746 8.4781-1.4369 2.5709-2.9115 4.6427-3.277 4.604-0.36548-0.0386-4.9812-2.2176-10.257-4.8422zm226.59 2.3395c-2.2-1.3114-6.925-3.5999-10.5-5.0854-3.575-1.4856-6.8883-3.031-7.3629-3.4342-0.47461-0.40327 0.1908-2.6081 1.4787-4.8996 2.1-3.7365 2.6421-4.1062 5.254-3.5838 3.819 0.76379 21.629 9.213 21.633 10.263 6e-3 1.6878-4.542 9.3094-5.5011 9.2192-0.55095-0.0519-2.8017-1.1672-5.0017-2.4787zm-600.75-7.8801c-2.6125-2.9384-4.75-5.7624-4.75-6.2757 0-0.51331 1.1836-1.5667 2.6302-2.3409 2.5535-1.3666 2.771-1.248 7.4549 4.0646l4.8246 5.4722-2.1292 2.2664c-1.1711 1.2465-2.3883 2.2415-2.7049 2.2111-0.31663-0.0304-2.7132-2.4594-5.3257-5.3978zm15.239-3.297c-6e-3 -0.4125-2.062-2.9746-4.5692-5.6935l-4.5586-4.9435 2.3192-1.7843c1.2756-0.98135 2.615-1.7943 2.9766-1.8065 0.90051-0.0305 9.8427 9.9897 9.8427 11.029 0 0.92569-3.9982 3.9486-5.2225 3.9486-0.42762 0-0.78229-0.3375-0.78816-0.75zm427.01-4.25v-5h49v10h-49z" fill="white"/>
</svg>
